<svg xmlns="http://www.w3.org/2000/svg" version="1.1" xmlns:xlink="http://www.w3.org/1999/xlink" xmlns:svgjs="http://svgjs.dev/svgjs" width="1000" height="1125" viewBox="0 0 1000 1125"><g transform="matrix(1,0,0,1,1.7053025658242404e-13,0)"><svg viewBox="0 0 320 360" data-background-color="#000000" preserveAspectRatio="xMidYMid meet" height="1125" width="1000" xmlns="http://www.w3.org/2000/svg" xmlns:xlink="http://www.w3.org/1999/xlink"><g id="tight-bounds" transform="matrix(1,0,0,1,0,0)"><svg viewBox="0 0 320 360" height="360" width="320"><g><svg></svg></g><g><svg viewBox="0 0 320 360" height="360" width="320"><g><path xmlns="http://www.w3.org/2000/svg" d="M20.961 227.22l3.726 4.658-1.863-6.056c-0.466-2.795-3.726 0.466-1.863 1.398M25.153 224.425c1.397 2.329 2.795 4.658 2.795 6.987 0 3.261 2.795 4.658 5.123 5.589-3.261-3.726-5.124-13.974-7.918-12.576M204.017 26.929c7.918 0 15.371-0.932 23.756 0.931 20.495 5.124 37.729 15.371 49.374 29.811l32.606 52.169c1.397 13.042 4.192 27.482 3.726 43.319 3.261 0 2.795-4.658 6.521-5.59-3.726 9.316-5.59 20.961-6.521 34.469-2.329-7.453 0-18.632 0.466-24.687-3.261 5.124-5.124 1.397-5.124-0.932 0.466-3.726-1.397-3.261-2.795-4.658-5.124-4.658-8.384-9.782-12.11-17.7 2.329-6.055 2.795-14.905-4.658-19.563-2.329-1.397-5.124-3.726-6.521-7.453-1.863-5.124-5.124-11.179-4.193-19.097 0.466-2.329-6.987 5.124-11.179 1.863-18.166-12.576-36.332-27.016-58.224-39.127-11.645 0-20.029-4.192-24.221-9.316-3.726-4.658-0.932-10.713 4.658-11.179 3.261 0 6.987-0.932 9.782 0.932 0.466-1.863 2.329-4.192 4.657-4.192M157.904 16.215l0.932 0.466c4.658 0.932 6.987 7.453 12.11 5.124 0 3.261 0.466 6.521-0.466 8.85-1.397 3.726-5.59 3.726-8.85 3.726-31.208-1.863-49.374 11.179-68.471 22.358-5.124 3.261-10.713 5.59-14.906 9.782-20.029 18.632-41.921 35.866-47.045 70.335l-4.192 38.195c-0.466 4.192-5.124 8.384-4.192 13.508l3.26 22.824c-3.261-3.261-5.124 0.932-4.192 2.795 0.466 1.397 2.329 6.055 5.124 1.863 3.726 6.987 7.453 20.495 12.576 26.55 15.837 18.632 36.332 35.4 53.101 52.169 4.192-0.932 7.453-0.932 8.384-3.727 1.397 2.795-1.397 5.59-3.726 6.056 7.453 4.658 15.837 8.85 27.016 9.781 14.44 0.932 27.948 3.261 40.524 6.522 6.521-1.863 13.042-2.795 20.029-3.261 2.329 0 3.726-3.726 6.521-4.658l0.466-4.658c2.795 4.192 2.329-1.397 0.466-4.192 3.261 2.795 4.192 5.124 5.589 6.987 0-1.397 3.726-6.521 3.727-0.466l0.931-6.055c1.397-0.932 1.863 5.124 3.261 0.931 1.397-4.192 4.192-0.932 6.987-2.329-0.932 1.863-0.466 5.59 2.794 3.261l3.727-3.261c2.329 5.59 6.055 3.261 7.918 2.329 20.495-13.042 40.99-28.413 60.553-43.784l-0.466 6.055 2.329-7.453c2.329 2.329 4.192 0.466 5.124-0.931 2.795-4.658 6.521-9.316 12.577-13.508-7.453 20.029-16.303 35.866-27.482 48.908l-4.658 5.59c0 3.261-0.932 7.453-4.658 7.918-1.863 0.466-5.59-0.932-8.384 1.863-1.397 1.863 3.261 5.59-0.466 2.795-3.261-2.329-6.521 0-10.248 0.932-2.795 0.932 1.863 3.726 2.795 5.589 0.932 1.863 1.863 3.726 1.398 6.056l-5.124-5.59c-6.055 3.261-9.782 9.316-14.906 13.974-2.329 1.863-1.397 5.124-1.397 7.918-3.261 0-6.987-0.932-8.85 0.932-1.397 1.863-0.932 4.658-0.932 7.453-4.658-0.466-5.124-7.453-9.315-6.056-4.192 0.932-8.85 1.397-12.577 3.727 2.795 5.59-4.658 2.329-3.726 3.26-6.987-4.192-13.042-7.453-20.495-4.658-15.837-5.124-35.4-2.795-49.84-0.931 0-2.329 0.466-4.658-0.466-5.124-0.932 2.329-3.726 1.397-3.26 1.397-8.85-6.055-17.7-9.782-27.016-14.905-8.384 0.932-16.303-3.261-18.632-5.59-6.521-6.055-13.974-2.795-20.029-4.192-13.042-3.261-17.7-16.769-19.098-26.084-0.932-4.658-4.658-6.521-6.055-6.056-6.055-19.563-15.371-37.263-22.824-55.429-1.863-4.658-1.397-9.316-1.397-14.44 2.329 0.932 4.658 0.466 4.192-2.794-2.329-15.371-7.918-27.016-13.974-38.195 3.261-15.837 3.726-34.469 11.179-48.443 6.521-12.576 18.632-19.098 27.016-29.811 2.795-3.726 2.795-8.85 5.59-12.11 9.316-9.316 18.632-19.098 28.879-27.482 4.658-3.726 10.247 0 17.234-1.397 2.329-8.384 11.645-15.837 20.495-13.508 3.726 0.932 11.179-8.85 13.508-9.782 3.726-1.397 1.863 3.726 1.863 6.987 8.85-6.987 20.961-10.713 32.14-14.906" fill="#89939e" fill-rule="nonzero" stroke="none" stroke-width="1" stroke-linecap="butt" stroke-linejoin="miter" stroke-miterlimit="10" stroke-dasharray="" stroke-dashoffset="0" font-family="none" font-weight="none" font-size="none" text-anchor="none" style="mix-blend-mode: normal" data-fill-palette-color="tertiary"></path></g><g transform="matrix(1,0,0,1,64,130.2379327756654)"><svg viewBox="0 0 192 99.5241344486692" height="99.5241344486692" width="192"><g><svg viewBox="0 0 192 99.5241344486692" height="99.5241344486692" width="192"><g><svg viewBox="0 0 192 99.5241344486692" height="99.5241344486692" width="192"><g transform="matrix(1,0,0,1,0,60.154226789788154)"><svg viewBox="0 0 192 39.36990765888104" height="39.36990765888104" width="192"><g><svg viewBox="0 0 192 39.36990765888104" height="39.36990765888104" width="192" id="textblock"><g><svg viewBox="0 0 192 39.36990765888104" height="39.36990765888104" width="192"><g transform="matrix(1,0,0,1,0,0)"><svg width="192" viewBox="0.20000000298023224 -36.130001068115234 179.77000427246094 36.86000061035156" height="39.36990765888104" data-palette-color="#89939e"><path d="M30.42-21.39L30.71-4.98Q29.57-3.54 27.88-2.47 26.2-1.39 24.27-0.68 22.34 0.02 20.31 0.38 18.29 0.73 16.46 0.73L16.46 0.73Q12.92 0.73 9.94-0.54 6.96-1.81 4.8-4.04 2.64-6.27 1.42-9.3 0.2-12.33 0.2-15.82L0.2-15.82Q0.2-18.48 0.81-21.03 1.42-23.58 2.55-25.84 3.69-28.1 5.32-29.99 6.96-31.88 9.03-33.25 11.11-34.62 13.57-35.38 16.04-36.13 18.85-36.13L18.85-36.13Q19.9-36.13 21.09-36.05 22.29-35.96 23.47-35.75 24.66-35.55 25.78-35.18 26.9-34.81 27.83-34.28L27.83-34.28 27.15-24.95Q25.78-25.46 24.33-25.65 22.88-25.83 21.48-25.83L21.48-25.83Q19.53-25.83 17.83-25.23 16.14-24.63 14.88-23.51 13.62-22.39 12.89-20.78 12.16-19.17 12.16-17.14L12.16-17.14Q12.16-15.87 12.5-14.69 12.84-13.5 13.54-12.59 14.23-11.67 15.27-11.11 16.31-10.55 17.68-10.55L17.68-10.55Q18.6-10.55 19.59-10.79 20.58-11.04 21.29-11.62L21.29-11.62 21.39-13.53 15.53-13.62 15.82-20.95Q19.46-21.07 23.1-21.15 26.73-21.24 30.42-21.39L30.42-21.39ZM61.18-23.54L61.18-23.54Q61.18-21.63 60.85-20.08 60.52-18.53 59.81-17.24 59.1-15.94 57.98-14.84 56.86-13.75 55.27-12.74L55.27-12.74 61.08-2.39 50.1-0.24 46.34-10.64 43.31-10.55 42.87-0.39 32.37-0.39Q32.49-5.96 32.6-11.47 32.71-16.99 32.86-22.56L32.86-22.56Q32.91-25.37 32.96-28.13 33.01-30.88 33.15-33.69L33.15-33.69Q34.86-34.33 36.52-34.74 38.18-35.16 39.85-35.39 41.53-35.62 43.25-35.71 44.97-35.79 46.77-35.79L46.77-35.79Q49.56-35.79 52.16-35.02 54.76-34.25 56.76-32.71 58.76-31.18 59.97-28.88 61.18-26.59 61.18-23.54ZM50.24-22.75L50.24-22.75Q50.24-23.78 49.96-24.63 49.68-25.49 49.13-26.11 48.58-26.73 47.76-27.09 46.95-27.44 45.85-27.44L45.85-27.44Q45.36-27.44 44.89-27.38 44.43-27.32 43.99-27.2L43.99-27.2 43.6-18.12 44.19-18.12Q45.24-18.12 46.32-18.38 47.41-18.65 48.28-19.21 49.14-19.78 49.69-20.65 50.24-21.53 50.24-22.75ZM93.04-18.7L93.04-18.7Q93.04-16.48 92.52-14.42 92.01-12.35 91.05-10.55 90.08-8.74 88.7-7.24 87.32-5.74 85.6-4.66 83.88-3.59 81.86-2.99 79.83-2.39 77.56-2.39L77.56-2.39Q75.36-2.39 73.37-2.95 71.38-3.52 69.65-4.53 67.91-5.54 66.51-6.97 65.11-8.4 64.12-10.14 63.13-11.89 62.58-13.89 62.03-15.89 62.03-18.07L62.03-18.07Q62.03-20.19 62.54-22.23 63.06-24.27 64.02-26.07 64.99-27.88 66.35-29.39 67.72-30.91 69.42-32.01 71.11-33.11 73.09-33.72 75.07-34.33 77.27-34.33L77.27-34.33Q80.81-34.33 83.72-33.23 86.64-32.13 88.7-30.09 90.77-28.05 91.9-25.16 93.04-22.27 93.04-18.7ZM82.2-18.07L82.2-18.07Q82.2-19.12 81.89-20.1 81.59-21.09 81-21.86 80.41-22.63 79.55-23.11 78.68-23.58 77.56-23.58L77.56-23.58Q76.41-23.58 75.51-23.17 74.6-22.75 73.96-22.03 73.31-21.31 72.97-20.35 72.63-19.38 72.63-18.31L72.63-18.31Q72.63-17.29 72.92-16.26 73.21-15.23 73.8-14.4 74.38-13.57 75.25-13.06 76.12-12.55 77.27-12.55L77.27-12.55Q78.41-12.55 79.33-13 80.24-13.45 80.88-14.22 81.51-14.99 81.86-15.99 82.2-16.99 82.2-18.07ZM126.09-34.96L138.15-33.89 132.44-1.03 118.57-0.73 115.59-17.29 112.61-2 98.75-1.51 92.99-32.91 105.1-33.98 107.54-14.7 110.81-32.52 120.33-32.52 124.14-14.45 126.09-34.96ZM139.49-33.69L152.48-34.38 149.79-1.12 139.49-0.59 139.49-33.69ZM153.36-34.86L179.97-34.91 179.72-24.56 172.45-24.27 170.59-1.12 160.29-0.59 160.34-23.73 153.06-23.34 153.36-34.86Z" opacity="1" transform="matrix(1,0,0,1,0,0)" fill="#89939e" class="undefined-text-0" data-fill-palette-color="primary" id="text-0"></path></svg></g></svg></g></svg></g></svg></g><g transform="matrix(1,0,0,1,70.61784754452098,0)"><svg viewBox="0 0 50.76430491095803 54.4092123845736" height="54.4092123845736" width="50.76430491095803"><g><svg xmlns="http://www.w3.org/2000/svg" xmlns:xlink="http://www.w3.org/1999/xlink" version="1.0" x="0" y="0" viewBox="9.091090202331543 4.881208419799805 84.260009765625 90.30992889404297" enable-background="new 0 0 100 100" xml:space="preserve" height="54.4092123845736" width="50.76430491095803" class="icon-icon-0" data-fill-palette-color="accent" id="icon-0"><path d="M66.268 58.43V92.081c0 1.506 1.35 3.11 2.852 3.11h13.698c1.505 0 2.451-1.602 2.452-3.11V36.538c-1.258 2.942-2.741 5.686-4.451 8.214C77.053 50.318 72.157 54.916 66.268 58.43z" fill="#dedede" data-fill-palette-color="accent"></path><path d="M10.782 92.081c0 1.506 1.264 3.11 2.768 3.11h13.699c1.501 0 2.535-1.602 2.535-3.11V66.923c-8.38-0.093-15.351-1.198-19.002-1.909V92.081z" fill="#dedede" data-fill-palette-color="accent"></path><path d="M38.905 66.594V92.081c0 1.506 0.925 3.11 2.432 3.11h13.694c1.508 0 2.876-1.604 2.876-3.11V62.447c-3.07 1.165-6.336 2.11-9.778 2.822C45.187 65.877 42.103 66.319 38.905 66.594z" fill="#dedede" data-fill-palette-color="accent"></path><path d="M54.666 40.262c0.143-0.184 0.283-0.369 0.42-0.553-0.019 0-0.037-0.004-0.055-0.004H41.338c-1.508 0-2.433 1.572-2.433 3.076v8.968c0.552-0.221 1.097-0.447 1.63-0.684C46.353 48.471 51.107 44.837 54.666 40.262z" fill="#dedede" data-fill-palette-color="accent"></path><path d="M85.134 21.104h0.103 8.114L74.818 4.881l-18.533 16.223h9.963c-0.134 2.969-1.133 12.907-8.341 22.034-4.053 5.132-10.07 10.007-19.002 13.243-5.765 2.089-12.746 3.495-21.196 3.846-1.367 0.057-2.772 0.087-4.217 0.087-0.184 0-0.37-0.002-0.555-0.003-1.253-0.007-2.532-0.033-3.846-0.084 0 0 1.029 0.257 2.848 0.603 3.531 0.67 10.04 1.672 17.79 1.766 0.391 0.005 0.785 0.007 1.181 0.008 2.563 0 5.248-0.103 7.995-0.352 6.248-0.565 12.817-1.884 19.002-4.457 2.896-1.205 5.706-2.685 8.361-4.491C75.373 47.108 82.636 37.07 85.134 21.104z" fill="#dedede" data-fill-palette-color="accent"></path></svg></g></svg></g><g></g></svg></g></svg></g></svg></g></svg></g><defs></defs></svg><rect width="320" height="360" fill="none" stroke="none" visibility="hidden"></rect></g></svg></g></svg>